<svg width="342" height="74" viewBox="0 0 342 74" fill="none" xmlns="http://www.w3.org/2000/svg">
<rect width="342" height="74" rx="14" fill="black" fill-opacity="0.8"/>
<path d="M128.567 38.9741C128.473 40.2746 127.991 41.2983 127.123 42.0454C126.259 42.7925 125.119 43.166 123.703 43.166C122.153 43.166 120.933 42.6458 120.042 41.6055C119.157 40.5596 118.714 39.1263 118.714 37.3057V36.5669C118.714 35.4048 118.919 34.381 119.328 33.4956C119.738 32.6102 120.321 31.9323 121.08 31.4619C121.843 30.986 122.729 30.748 123.736 30.748C125.13 30.748 126.254 31.1216 127.106 31.8687C127.958 32.6157 128.451 33.6644 128.583 35.0146H126.093C126.032 34.2344 125.814 33.6699 125.438 33.3213C125.067 32.9671 124.5 32.79 123.736 32.79C122.906 32.79 122.283 33.0889 121.868 33.6865C121.459 34.2786 121.248 35.2 121.237 36.4507V37.3638C121.237 38.6698 121.434 39.6243 121.827 40.2275C122.225 40.8307 122.85 41.1323 123.703 41.1323C124.472 41.1323 125.045 40.958 125.421 40.6094C125.803 40.2552 126.021 39.7101 126.077 38.9741H128.567ZM135.249 43C135.138 42.7842 135.058 42.5158 135.008 42.1948C134.427 42.8423 133.672 43.166 132.742 43.166C131.862 43.166 131.132 42.9115 130.551 42.4023C129.975 41.8932 129.688 41.2513 129.688 40.4766C129.688 39.5247 130.039 38.7943 130.742 38.2852C131.45 37.776 132.471 37.5187 133.805 37.5132H134.909V36.9985C134.909 36.5835 134.801 36.2515 134.585 36.0024C134.375 35.7534 134.04 35.6289 133.581 35.6289C133.177 35.6289 132.858 35.7257 132.626 35.9194C132.399 36.1131 132.286 36.3787 132.286 36.7163H129.887C129.887 36.1961 130.047 35.7147 130.368 35.272C130.689 34.8293 131.143 34.4834 131.729 34.2344C132.316 33.9798 132.975 33.8525 133.705 33.8525C134.812 33.8525 135.689 34.132 136.336 34.6909C136.989 35.2443 137.316 36.0246 137.316 37.0317V40.9248C137.321 41.777 137.44 42.4217 137.673 42.8589V43H135.249ZM133.265 41.3315C133.619 41.3315 133.946 41.2541 134.245 41.0991C134.543 40.9386 134.765 40.7256 134.909 40.46V38.916H134.012C132.811 38.916 132.172 39.3311 132.095 40.1611L132.086 40.3022C132.086 40.6011 132.192 40.8473 132.402 41.041C132.612 41.2347 132.9 41.3315 133.265 41.3315ZM138.785 38.4429C138.785 37.0428 139.098 35.9277 139.723 35.0977C140.354 34.2676 141.215 33.8525 142.305 33.8525C143.179 33.8525 143.901 34.179 144.471 34.832V30.25H146.878V43H144.712L144.596 42.0454C143.998 42.7925 143.229 43.166 142.288 43.166C141.231 43.166 140.382 42.751 139.74 41.9209C139.103 41.0853 138.785 39.9259 138.785 38.4429ZM141.184 38.6172C141.184 39.4583 141.331 40.103 141.624 40.5513C141.917 40.9995 142.343 41.2236 142.902 41.2236C143.644 41.2236 144.167 40.911 144.471 40.2856V36.7412C144.172 36.1159 143.655 35.8032 142.919 35.8032C141.762 35.8032 141.184 36.7412 141.184 38.6172ZM153.942 43C153.832 42.7842 153.751 42.5158 153.702 42.1948C153.121 42.8423 152.365 43.166 151.436 43.166C150.556 43.166 149.825 42.9115 149.244 42.4023C148.669 41.8932 148.381 41.2513 148.381 40.4766C148.381 39.5247 148.732 38.7943 149.435 38.2852C150.143 37.776 151.164 37.5187 152.498 37.5132H153.602V36.9985C153.602 36.5835 153.494 36.2515 153.278 36.0024C153.068 35.7534 152.733 35.6289 152.274 35.6289C151.87 35.6289 151.552 35.7257 151.319 35.9194C151.092 36.1131 150.979 36.3787 150.979 36.7163H148.58C148.58 36.1961 148.741 35.7147 149.062 35.272C149.382 34.8293 149.836 34.4834 150.423 34.2344C151.009 33.9798 151.668 33.8525 152.398 33.8525C153.505 33.8525 154.382 34.132 155.03 34.6909C155.683 35.2443 156.009 36.0246 156.009 37.0317V40.9248C156.015 41.777 156.134 42.4217 156.366 42.8589V43H153.942ZM151.958 41.3315C152.313 41.3315 152.639 41.2541 152.938 41.0991C153.237 40.9386 153.458 40.7256 153.602 40.46V38.916H152.706C151.505 38.916 150.866 39.3311 150.788 40.1611L150.78 40.3022C150.78 40.6011 150.885 40.8473 151.095 41.041C151.306 41.2347 151.593 41.3315 151.958 41.3315ZM162.716 40.5181C162.716 40.2248 162.57 39.9951 162.276 39.8291C161.989 39.6576 161.524 39.5054 160.882 39.3726C158.746 38.9243 157.678 38.0168 157.678 36.6499C157.678 35.853 158.007 35.189 158.666 34.6577C159.33 34.1209 160.196 33.8525 161.264 33.8525C162.404 33.8525 163.314 34.1209 163.995 34.6577C164.681 35.1945 165.024 35.8918 165.024 36.7495H162.625C162.625 36.4064 162.514 36.1242 162.293 35.9028C162.072 35.6759 161.726 35.5625 161.255 35.5625C160.851 35.5625 160.539 35.6538 160.317 35.8364C160.096 36.019 159.985 36.2515 159.985 36.5337C159.985 36.7993 160.11 37.0151 160.359 37.1812C160.613 37.3416 161.04 37.4827 161.637 37.6045C162.235 37.7207 162.738 37.8535 163.148 38.0029C164.415 38.4678 165.049 39.2729 165.049 40.4185C165.049 41.2375 164.697 41.9015 163.995 42.4106C163.292 42.9142 162.384 43.166 161.272 43.166C160.519 43.166 159.85 43.0332 159.263 42.7676C158.682 42.4964 158.226 42.1284 157.894 41.6636C157.562 41.1932 157.396 40.6868 157.396 40.1445H159.67C159.692 40.5706 159.85 40.8971 160.143 41.124C160.436 41.3509 160.829 41.4644 161.322 41.4644C161.781 41.4644 162.127 41.3786 162.359 41.207C162.597 41.0299 162.716 40.8003 162.716 40.5181ZM169.473 31.8105V34.0186H171.009V35.7783H169.473V40.2607C169.473 40.5928 169.537 40.8307 169.664 40.9746C169.791 41.1185 170.035 41.1904 170.395 41.1904C170.66 41.1904 170.895 41.1711 171.1 41.1323V42.9502C170.63 43.0941 170.146 43.166 169.647 43.166C167.965 43.166 167.107 42.3166 167.074 40.6177V35.7783H165.763V34.0186H167.074V31.8105H169.473ZM177.392 36.2681C177.066 36.2238 176.778 36.2017 176.529 36.2017C175.621 36.2017 175.026 36.5088 174.744 37.123V43H172.345V34.0186H174.611L174.678 35.0894C175.159 34.2648 175.826 33.8525 176.678 33.8525C176.944 33.8525 177.193 33.8885 177.425 33.9604L177.392 36.2681ZM183.51 43C183.399 42.7842 183.319 42.5158 183.269 42.1948C182.688 42.8423 181.933 43.166 181.003 43.166C180.123 43.166 179.393 42.9115 178.812 42.4023C178.236 41.8932 177.948 41.2513 177.948 40.4766C177.948 39.5247 178.3 38.7943 179.002 38.2852C179.711 37.776 180.732 37.5187 182.065 37.5132H183.169V36.9985C183.169 36.5835 183.062 36.2515 182.846 36.0024C182.635 35.7534 182.301 35.6289 181.841 35.6289C181.437 35.6289 181.119 35.7257 180.887 35.9194C180.66 36.1131 180.546 36.3787 180.546 36.7163H178.147C178.147 36.1961 178.308 35.7147 178.629 35.272C178.95 34.8293 179.404 34.4834 179.99 34.2344C180.577 33.9798 181.235 33.8525 181.966 33.8525C183.073 33.8525 183.95 34.132 184.597 34.6909C185.25 35.2443 185.577 36.0246 185.577 37.0317V40.9248C185.582 41.777 185.701 42.4217 185.934 42.8589V43H183.51ZM181.526 41.3315C181.88 41.3315 182.207 41.2541 182.505 41.0991C182.804 40.9386 183.026 40.7256 183.169 40.46V38.916H182.273C181.072 38.916 180.433 39.3311 180.355 40.1611L180.347 40.3022C180.347 40.6011 180.452 40.8473 180.663 41.041C180.873 41.2347 181.161 41.3315 181.526 41.3315ZM192.466 36.2681C192.14 36.2238 191.852 36.2017 191.603 36.2017C190.695 36.2017 190.101 36.5088 189.818 37.123V43H187.419V34.0186H189.686L189.752 35.0894C190.233 34.2648 190.9 33.8525 191.752 33.8525C192.018 33.8525 192.267 33.8885 192.5 33.9604L192.466 36.2681Z" fill="white"/>
<path d="M229.945 37.4688C229.945 36.9883 229.734 36.4844 229.406 36.168L221.801 28.5625C221.426 28.1875 220.98 28 220.559 28C219.516 28 218.824 28.7148 218.824 29.6641C218.824 30.2031 219.047 30.6133 219.375 30.9297L222.047 33.6016L224.461 35.8398L221.941 35.6992H208.84C207.738 35.6992 207 36.4141 207 37.4688C207 38.5234 207.738 39.2266 208.84 39.2266H221.941L224.473 39.0977L222.047 41.3242L219.375 43.9844C219.059 44.3125 218.824 44.7227 218.824 45.25C218.824 46.1992 219.516 46.9258 220.559 46.9258C220.98 46.9258 221.414 46.7383 221.789 46.375L229.406 38.7578C229.734 38.4414 229.945 37.9375 229.945 37.4688Z" fill="#EEEEEE"/>
</svg>
